<svg xmlns="http://www.w3.org/2000/svg" direction="ltr" width="720" height="720" viewBox="2244.6465583068625 6060.101369555436 720 720" stroke-linecap="round" stroke-linejoin="round" data-color-mode="light" class="tl-container tl-theme__force-sRGB tl-theme__light" style="background-color: transparent;"><defs/><g transform="matrix(1, 0, 0, 1, 2244.6466, 6060.1014)" opacity="1"><g data-lovart-layer-name="prome-logo_SVG"><g transform="scale(1, 1)"><g>
<path xmlns="http://www.w3.org/2000/svg" stroke="#fee57f" stroke-width="2.00" fill="none" stroke-linecap="butt" d="M 329.56 322.01   A 1.51 1.51 0.0 0 1 327.58 321.16   Q 326.71 318.90 326.62 315.99   Q 325.42 272.84 320.90 228.19   Q 319.97 218.99 318.26 208.37   C 315.87 193.50 313.16 180.51 308.50 169.42   Q 297.55 143.32 271.28 137.09   Q 259.08 134.19 248.12 136.51   C 234.81 139.32 223.56 146.17 213.74 155.00   Q 197.74 169.39 183.95 187.95   Q 163.53 215.42 145.26 247.51   Q 128.33 277.23 116.34 304.03   Q 102.00 336.07 97.28 347.76   Q 96.52 349.64 96.44 351.38   A 1.28 1.28 0.0 0 0 98.32 352.57   Q 99.75 351.80 101.23 350.47   C 106.45 345.75 109.90 341.65 114.60 336.75   Q 185.01 263.27 231.00 214.25   Q 234.85 210.15 243.69 200.45   Q 246.04 197.87 252.31 193.00   A 4.42 4.40 16.5 0 1 253.61 192.30   C 264.64 188.50 268.93 198.29 270.21 207.01   Q 272.66 223.58 273.44 228.54   Q 281.09 277.26 294.89 359.81   C 297.09 372.98 299.46 384.75 301.11 397.30   A 1.89 1.89 0.0 0 0 303.06 398.95   C 315.25 398.47 325.46 392.43 334.60 385.33   Q 344.63 377.54 355.39 367.39   Q 374.29 349.56 376.45 347.69   Q 382.73 342.25 388.08 340.11   C 395.27 337.22 400.67 341.56 402.37 348.55   C 404.34 356.63 404.80 364.63 406.46 379.02   C 410.44 413.61 427.84 443.18 459.45 459.30   C 478.03 468.77 499.60 472.16 520.18 472.80   C 544.98 473.57 570.90 468.09 594.89 460.13   C 601.12 458.06 605.58 456.31 609.69 450.95   C 614.77 444.32 618.37 436.02 617.33 427.73   C 615.89 416.29 610.04 404.33 600.35 397.44   C 594.60 393.35 588.88 393.89 582.73 396.48   Q 560.90 405.69 539.56 412.57   C 525.02 417.26 510.57 421.51 495.75 421.42   C 466.81 421.25 458.02 392.97 455.21 370.01   C 452.64 348.98 453.03 332.38 453.13 306.04   Q 453.17 295.98 451.81 284.49   C 450.82 276.06 447.99 264.74 440.47 259.87   C 432.76 254.89 422.18 255.64 413.78 259.30   Q 407.04 262.24 400.52 266.27   C 387.04 274.62 375.24 283.97 362.41 294.50   C 354.19 301.24 342.69 312.46 334.28 319.03   Q 331.40 321.27 329.56 322.01"/>
<path xmlns="http://www.w3.org/2000/svg" fill="#fecc01" d="M 205.68 624.39   Q 176.74 618.58 171.26 617.68   Q 168.74 617.27 166.92 616.77   C 161.88 615.38 156.29 614.79 151.92 613.79   Q 146.22 612.50 141.30 611.64   Q 127.15 609.16 106.25 604.71   Q 99.48 603.27 94.72 602.48   C 88.75 601.50 85.18 600.34 79.36 599.42   Q 71.51 598.19 61.90 595.86   C 58.11 594.94 55.77 593.57 52.71 591.13   C 45.51 585.39 45.23 575.95 46.86 567.52   Q 49.65 553.03 65.58 467.57   C 66.31 463.67 67.90 457.57 68.51 452.30   Q 68.65 451.09 69.62 445.71   C 75.27 414.36 82.34 379.75 87.72 349.55   C 92.07 325.12 99.48 288.75 104.89 258.12   Q 108.36 238.46 110.51 227.14   Q 110.55 226.95 128.54 131.41   Q 135.65 93.66 142.89 53.28   Q 144.22 45.83 144.91 42.94   C 147.73 31.11 156.99 23.98 169.25 25.33   Q 174.46 25.90 182.23 27.36   Q 209.93 32.58 212.19 32.97   Q 219.04 34.16 229.04 36.16   Q 237.96 37.94 245.88 39.26   Q 262.68 42.07 278.52 45.47   C 281.63 46.14 285.77 46.56 289.46 47.30   Q 293.49 48.10 330.95 55.21   Q 353.41 59.48 376.92 63.66   Q 377.28 63.72 381.44 64.51   Q 439.05 75.48 442.83 76.10   Q 452.08 77.65 464.33 80.15   C 475.61 82.45 486.87 84.26 499.20 86.78   Q 504.70 87.91 522.30 91.01   Q 531.14 92.56 545.37 95.43   Q 556.90 97.75 563.61 98.63   C 566.18 98.97 569.67 100.09 572.84 100.68   Q 602.36 106.19 632.14 111.87   Q 643.48 114.03 645.03 114.27   C 652.95 115.50 660.59 116.84 667.45 121.07   C 673.80 124.99 675.23 134.59 673.98 141.26   Q 672.53 149.04 671.19 157.84   Q 670.93 159.55 670.35 161.79   C 668.52 168.81 667.79 179.59 665.64 188.54   C 664.63 192.75 664.34 197.53 663.44 202.16   C 660.71 216.27 658.54 230.60 656.20 243.60   Q 648.94 284.02 641.70 326.91   C 640.04 336.74 637.79 346.21 636.88 353.52   C 635.89 361.54 634.04 367.90 632.86 376.34   Q 632.22 380.94 630.54 388.72   C 629.48 393.64 629.07 400.19 627.91 405.33   Q 625.25 417.16 624.02 427.74   Q 623.57 431.65 622.01 438.14   C 620.80 443.19 620.46 449.79 619.09 455.40   C 617.42 462.22 617.11 468.13 615.53 475.68   Q 614.36 481.31 613.55 486.16   Q 609.39 511.06 606.43 526.64   C 604.93 534.49 603.91 543.05 602.23 550.59   Q 601.17 555.35 600.88 558.41   C 600.55 561.82 599.60 565.58 599.02 568.85   Q 592.21 607.44 591.21 613.64   C 589.46 624.52 586.78 635.99 585.11 647.84   C 584.19 654.32 582.67 659.89 581.81 666.08   Q 580.36 676.53 578.21 681.97   Q 572.60 696.20 557.29 693.73   C 552.57 692.97 544.20 691.50 537.59 689.95   C 532.45 688.74 528.41 688.56 523.19 687.08   C 517.54 685.47 510.85 685.28 504.95 683.55   C 500.60 682.28 495.80 681.96 490.84 680.90   Q 477.50 678.07 451.65 673.04   Q 444.05 671.56 442.48 671.15   C 435.99 669.47 429.99 669.12 423.21 667.32   C 419.33 666.29 414.10 666.03 409.67 664.97   C 397.92 662.17 383.22 659.83 369.32 656.84   Q 355.79 653.93 350.22 653.16   Q 347.68 652.82 343.41 651.64   C 338.62 650.33 332.18 649.98 327.61 648.74   C 323.81 647.70 319.44 647.17 315.79 646.44   Q 288.26 640.91 266.54 636.42   Q 257.21 634.49 254.92 634.24   C 250.71 633.76 246.91 632.48 243.24 631.80   Q 222.76 627.96 217.57 626.88   Q 206.25 624.51 205.68 624.39   Z   M 329.56 322.01   A 1.51 1.51 0.0 0 1 327.58 321.16   Q 326.71 318.90 326.62 315.99   Q 325.42 272.84 320.90 228.19   Q 319.97 218.99 318.26 208.37   C 315.87 193.50 313.16 180.51 308.50 169.42   Q 297.55 143.32 271.28 137.09   Q 259.08 134.19 248.12 136.51   C 234.81 139.32 223.56 146.17 213.74 155.00   Q 197.74 169.39 183.95 187.95   Q 163.53 215.42 145.26 247.51   Q 128.33 277.23 116.34 304.03   Q 102.00 336.07 97.28 347.76   Q 96.52 349.64 96.44 351.38   A 1.28 1.28 0.0 0 0 98.32 352.57   Q 99.75 351.80 101.23 350.47   C 106.45 345.75 109.90 341.65 114.60 336.75   Q 185.01 263.27 231.00 214.25   Q 234.85 210.15 243.69 200.45   Q 246.04 197.87 252.31 193.00   A 4.42 4.40 16.5 0 1 253.61 192.30   C 264.64 188.50 268.93 198.29 270.21 207.01   Q 272.66 223.58 273.44 228.54   Q 281.09 277.26 294.89 359.81   C 297.09 372.98 299.46 384.75 301.11 397.30   A 1.89 1.89 0.0 0 0 303.06 398.95   C 315.25 398.47 325.46 392.43 334.60 385.33   Q 344.63 377.54 355.39 367.39   Q 374.29 349.56 376.45 347.69   Q 382.73 342.25 388.08 340.11   C 395.27 337.22 400.67 341.56 402.37 348.55   C 404.34 356.63 404.80 364.63 406.46 379.02   C 410.44 413.61 427.84 443.18 459.45 459.30   C 478.03 468.77 499.60 472.16 520.18 472.80   C 544.98 473.57 570.90 468.09 594.89 460.13   C 601.12 458.06 605.58 456.31 609.69 450.95   C 614.77 444.32 618.37 436.02 617.33 427.73   C 615.89 416.29 610.04 404.33 600.35 397.44   C 594.60 393.35 588.88 393.89 582.73 396.48   Q 560.90 405.69 539.56 412.57   C 525.02 417.26 510.57 421.51 495.75 421.42   C 466.81 421.25 458.02 392.97 455.21 370.01   C 452.64 348.98 453.03 332.38 453.13 306.04   Q 453.17 295.98 451.81 284.49   C 450.82 276.06 447.99 264.74 440.47 259.87   C 432.76 254.89 422.18 255.64 413.78 259.30   Q 407.04 262.24 400.52 266.27   C 387.04 274.62 375.24 283.97 362.41 294.50   C 354.19 301.24 342.69 312.46 334.28 319.03   Q 331.40 321.27 329.56 322.01   Z"/>
<path xmlns="http://www.w3.org/2000/svg" fill="#fefdfd" d="M 329.56 322.01   Q 331.40 321.27 334.28 319.03   C 342.69 312.46 354.19 301.24 362.41 294.50   C 375.24 283.97 387.04 274.62 400.52 266.27   Q 407.04 262.24 413.78 259.30   C 422.18 255.64 432.76 254.89 440.47 259.87   C 447.99 264.74 450.82 276.06 451.81 284.49   Q 453.17 295.98 453.13 306.04   C 453.03 332.38 452.64 348.98 455.21 370.01   C 458.02 392.97 466.81 421.25 495.75 421.42   C 510.57 421.51 525.02 417.26 539.56 412.57   Q 560.90 405.69 582.73 396.48   C 588.88 393.89 594.60 393.35 600.35 397.44   C 610.04 404.33 615.89 416.29 617.33 427.73   C 618.37 436.02 614.77 444.32 609.69 450.95   C 605.58 456.31 601.12 458.06 594.89 460.13   C 570.90 468.09 544.98 473.57 520.18 472.80   C 499.60 472.16 478.03 468.77 459.45 459.30   C 427.84 443.18 410.44 413.61 406.46 379.02   C 404.80 364.63 404.34 356.63 402.37 348.55   C 400.67 341.56 395.27 337.22 388.08 340.11   Q 382.73 342.25 376.45 347.69   Q 374.29 349.56 355.39 367.39   Q 344.63 377.54 334.60 385.33   C 325.46 392.43 315.25 398.47 303.06 398.95   A 1.89 1.89 0.0 0 1 301.11 397.30   C 299.46 384.75 297.09 372.98 294.89 359.81   Q 281.09 277.26 273.44 228.54   Q 272.66 223.58 270.21 207.01   C 268.93 198.29 264.64 188.50 253.61 192.30   A 4.42 4.40 16.5 0 0 252.31 193.00   Q 246.04 197.87 243.69 200.45   Q 234.85 210.15 231.00 214.25   Q 185.01 263.27 114.60 336.75   C 109.90 341.65 106.45 345.75 101.23 350.47   Q 99.75 351.80 98.32 352.57   A 1.28 1.28 0.0 0 1 96.44 351.38   Q 96.52 349.64 97.28 347.76   Q 102.00 336.07 116.34 304.03   Q 128.33 277.23 145.26 247.51   Q 163.53 215.42 183.95 187.95   Q 197.74 169.39 213.74 155.00   C 223.56 146.17 234.81 139.32 248.12 136.51   Q 259.08 134.19 271.28 137.09   Q 297.55 143.32 308.50 169.42   C 313.16 180.51 315.87 193.50 318.26 208.37   Q 319.97 218.99 320.90 228.19   Q 325.42 272.84 326.62 315.99   Q 326.71 318.90 327.58 321.16   A 1.51 1.51 0.0 0 0 329.56 322.01   Z"/>
</g></g></g></g></svg>